<svg id="visual" viewBox="0 0 1400 800" width="1400" height="800" xmlns="http://www.w3.org/2000/svg" xmlns:xlink="http://www.w3.org/1999/xlink" version="1.1"><path d="M557 0L570.7 33.3C584.3 66.7 611.7 133.3 640.3 200C669 266.7 699 333.3 713 400C727 466.7 725 533.3 703.8 600C682.7 666.7 642.3 733.3 622.2 766.7L602 800L0 800L0 766.7C0 733.3 0 666.7 0 600C0 533.3 0 466.7 0 400C0 333.3 0 266.7 0 200C0 133.3 0 66.7 0 33.3L0 0Z" fill="#E38626" stroke-linecap="round" stroke-linejoin="miter"></path></svg>